<?xml version="1.0" encoding="utf-8"?>
<!-- Generator: Adobe Illustrator 19.0.0, SVG Export Plug-In . SVG Version: 6.00 Build 0)  -->
<svg version="1.1" id="Layer_1" xmlns="http://www.w3.org/2000/svg" xmlns:xlink="http://www.w3.org/1999/xlink" x="0px" y="0px"
	 viewBox="0 0 500 500" style="enable-background:new 0 0 500 500;" xml:space="preserve">
<style type="text/css">
	.st0{fill:#004711;}
	.st1{fill:#00B159;}
</style>
<g id="XMLID_1_">
	<path id="XMLID_2_" class="st0" d="M177.2,235.8l-15-99.8l-60.9-37.6l18.1,93.8L177.2,235.8z M191.4,343.1l-9.6-70.7l-54.2-44.8
		l14,70L191.4,343.1z M148.4,327.3l9.6,53.1l46.1,47.9l-6.5-54.2L148.4,327.3z M286,311l-23.7-17.6c0,0-0.3,6.3-1,6.7L244,312.3
		l18.9,15.5l1.1,17.7l22.5,18.3L286,311z M357.7,259.3l-4.3,49.8l-15.9-10.5l1.7-25.2c-0.1-0.2-30.7-20.7-30.7-20.7l1-22.9
		L357.7,259.3z"/>
	<path id="XMLID_8_" class="st1" d="M256.7,194.6l-4.4-92.8l-90.2,34.2l15,99.8L256.7,194.6z M260.9,299.8l-3.6-70.7l-75.4,43.3
		l11.1,72.6L260.9,299.8z M262.2,328.6l-64.5,45.6l8,55.7l58.8-46.9L262.2,328.6z M287.1,310.7l1,53.9l46.6-37.8l2.3-51.3
		L287.1,310.7z M398.1,232.6l-6.1,47.3l-36.5,29.3l4.3-49.7L398.1,232.6z"/>
	<path id="XMLID_14_" d="M264.6,327.7l0-0.1c0-0.1,0-0.2-0.1-0.3l-0.1-0.2c0-0.1-0.1-0.2-0.1-0.3l-0.1-0.2l-0.2-0.3l-0.1-0.1l0,0
		L246.5,312l15.9-10.7c0.6-0.4,1-1.1,1-1.9l-0.2-3.8l21,16.1l0.4,48.8l-19.4-16.3L264.6,327.7z M179.9,273l9.8,66.7l-46.2-43.6
		L130,231.5L179.9,273z M258.9,298.4l-64.6,43.5l-10.1-68.8l71.8-40.9L258.9,298.4z M250.6,104l3.8,89.8l-76,39.5l-14.1-96.2
		L250.6,104z M160,137l13.9,94.6l-52.2-40.7l-18.5-89.2L160,137z M160.8,380.1l-9.9-47.7l44,43.3l7,48.1L160.8,380.1z M262.5,381.8
		l-55.8,44.4l-7.4-50.6l61.1-43.7L262.5,381.8z M332.6,326L289,360.7l-0.4-48.9l46.8-33.5L332.6,326z M338.6,298.2l1.5-24.3l0-0.1
		l0-0.1l0-0.3l0-0.2c0-0.2-0.1-0.3-0.2-0.5l0,0c-0.1-0.2-0.2-0.3-0.3-0.5l-0.1-0.1l-0.3-0.2l-29.3-19.4l0.4-21.2l46.1,28.7
		l-4.1,47.6L338.6,298.2z M356.7,306.7l4-46.6l36.4-26.1l-6.1,45.3L356.7,306.7z M402.2,229.2l0-0.1l0-0.2c0-0.1-0.1-0.2-0.1-0.4
		l-0.1-0.2c-0.1-0.1-0.1-0.2-0.2-0.3l-0.1-0.2c-0.1-0.1-0.2-0.2-0.3-0.3l-0.1-0.1l0,0l0,0l-49.8-27.6c-0.7-0.4-1.5-0.4-2.2,0.1
		L307,225.6l-0.2,0.1l-0.2,0.2l-0.2,0.2l-0.2,0.2l-0.1,0.3l-0.1,0.2c0,0.1,0,0.2-0.1,0.3l0,0.2l-0.4,22.3l-17.1-11.3
		c-0.7-0.5-1.6-0.5-2.3,0l-24.6,15l-1.1-25l0-0.2c0-0.1,0-0.2-0.1-0.3l-0.1-0.2l-0.1-0.3l-0.1-0.2l-0.2-0.2l-0.2-0.2l-0.1-0.1
		l-25.6-17.2l24-12.5c0.8-0.4,1.2-1.2,1.2-2l-4-94.2c0-0.1,0-0.2-0.1-0.3l0-0.1c0-0.2-0.1-0.4-0.2-0.5l-0.1-0.1
		c-0.1-0.1-0.2-0.3-0.3-0.4l-0.1-0.1l-0.2-0.2l-0.2-0.1l-0.1-0.1L189,67.7c-0.5-0.2-1.1-0.3-1.6-0.1L99.3,95l0,0l-0.1,0
		c-0.2,0.1-0.3,0.1-0.5,0.2l0,0l-0.1,0.1c-0.1,0.1-0.2,0.2-0.3,0.3L98.1,96L98,96.3c0,0.1-0.1,0.2-0.1,0.4l-0.1,0.2l0,0
		c0,0.1,0,0.2,0,0.3l0,0.3l0,0l19.7,95c0.1,0.5,0.4,1,0.8,1.3l26.7,20.8l-19.3,9.2l-0.1,0.1l-0.1,0l-0.1,0.1
		c-0.1,0.1-0.2,0.2-0.3,0.3l-0.2,0.2c-0.1,0.1-0.2,0.2-0.2,0.4l-0.1,0.1c-0.1,0.2-0.1,0.4-0.2,0.6v0v0.1c0,0.2,0,0.4,0,0.5l0,0.1
		l14.8,71.5c0.1,0.4,0.3,0.8,0.6,1.1l18.6,17.5l-12.3,7.5c-0.2,0.1-0.3,0.2-0.4,0.3l-0.1,0.1c-0.1,0.1-0.2,0.3-0.3,0.4l-0.1,0.1
		c-0.1,0.2-0.1,0.4-0.2,0.6c0,0.2,0,0.4,0,0.6l0,0.1l11.5,55.4c0.1,0.4,0.3,0.8,0.6,1.1l46.4,49.2l0.2,0.2l0.1,0.1
		c0.1,0.1,0.3,0.2,0.5,0.3l0,0l0,0c0.2,0.1,0.5,0.1,0.8,0.1c0.2,0,0.4,0,0.6-0.1l0.1,0l0.2-0.1l0.2-0.2l0.2-0.1l59.6-47.5
		c0.5-0.4,0.9-1.1,0.8-1.8l-1.4-32.6l19.9,16.8l0.1,0.1c0.1,0.1,0.2,0.2,0.3,0.2l0.1,0l0.2,0.1c0.2,0.1,0.4,0.1,0.7,0.1
		c0.2,0,0.4,0,0.6-0.1l0.1-0.1l0.1-0.1c0.1-0.1,0.2-0.1,0.3-0.2l0.1-0.1l47.8-38.1c0.5-0.4,0.8-1,0.8-1.6l1.5-23.9l14.5,10.1l0.1,0
		l0.1,0.1l0.3,0.1l0.2,0.1c0.2,0.1,0.4,0.1,0.6,0.1c0.2,0,0.4,0,0.6-0.1l0.1,0l0.1,0c0.1-0.1,0.2-0.1,0.3-0.2l0.1-0.1l39-31.1
		c0.4-0.4,0.7-0.9,0.8-1.4l6.9-51.2l0-0.2L402.2,229.2z"/>
</g>
</svg>
